<?xml version="1.0" standalone="no"?>
<!DOCTYPE svg PUBLIC "-//W3C//DTD SVG 20010904//EN"
 "http://www.w3.org/TR/2001/REC-SVG-20010904/DTD/svg10.dtd">
<svg version="1.0" xmlns="http://www.w3.org/2000/svg"
 width="239.000000pt" height="67.000000pt" viewBox="0 0 239.000000 67.000000"
 preserveAspectRatio="xMidYMid meet">

<g transform="translate(0.000000,67.000000) scale(0.100000,-0.100000)"
fill="#286DEB" stroke="none">
<path d="M130 340 l0 -210 35 0 35 0 0 85 0 85 85 0 85 0 0 35 0 35 -85 0 -85
0 0 55 0 55 100 0 100 0 0 35 0 35 -135 0 -135 0 0 -210z"/>
<path d="M531 532 c-63 -32 -76 -60 -79 -180 -2 -87 0 -113 15 -142 53 -102
193 -106 253 -8 30 49 26 68 -12 68 -26 -1 -37 -8 -53 -33 -24 -38 -64 -47
-101 -22 -24 16 -25 18 -22 128 3 108 4 112 29 126 35 20 76 7 97 -29 13 -24
24 -30 50 -30 40 0 42 21 9 71 -26 39 -79 69 -122 69 -16 0 -45 -8 -64 -18z"/>
<path d="M830 340 l0 -210 135 0 135 0 0 35 0 35 -100 0 -100 0 0 50 0 50 85
0 85 0 0 35 0 35 -85 0 -85 0 0 55 0 55 100 0 100 0 0 35 0 35 -135 0 -135 0
0 -210z"/>
<path d="M1180 340 l0 -210 135 0 135 0 0 35 0 35 -100 0 -100 0 0 175 0 175
-35 0 -35 0 0 -210z"/>
<path d="M1520 340 l0 -210 73 0 c172 0 227 51 227 210 0 161 -57 210 -241
210 l-59 0 0 -210z m200 115 c17 -16 20 -31 20 -116 0 -93 -1 -98 -26 -118
-19 -15 -41 -21 -75 -21 l-49 0 0 141 0 141 55 -4 c34 -3 62 -12 75 -23z"/>
<path d="M1975 531 c-57 -25 -82 -80 -65 -141 12 -46 38 -64 115 -80 33 -7 68
-16 78 -21 24 -13 23 -65 -2 -79 -29 -15 -106 -12 -148 5 -20 8 -37 14 -38 13
-8 -11 -26 -50 -23 -53 19 -17 81 -38 123 -42 103 -11 175 39 175 122 0 63
-27 90 -120 115 -96 26 -119 51 -80 90 24 24 85 27 134 6 33 -14 34 -13 46 12
14 31 -1 46 -60 62 -51 14 -90 12 -135 -9z"/>
</g>
</svg>
